<svg
  width="122"
  height="35"
  viewBox="0 0 122 35"
  fill="none"
  xmlns="http://www.w3.org/2000/svg"
>
<g clip-path="url(#clip0_645_169)">
<path
      d="M0.164062 34.3104V0.647339H5.43056V29.7789H17.2802V34.3104H0.164062Z"
      fill="#111111"
    />
<path
      d="M31.1048 34.9578C28.7216 34.9578 26.6418 34.4193 24.8656 33.3425C23.0892 32.2655 21.71 30.759 20.728 28.8227C19.7461 26.8864 19.2551 24.6238 19.2551 22.035C19.2551 19.4352 19.7461 17.1617 20.728 15.2145C21.71 13.2674 23.0892 11.7554 24.8656 10.6785C26.6418 9.60155 28.7216 9.06311 31.1048 9.06311C33.4879 9.06311 35.5677 9.60155 37.344 10.6785C39.1204 11.7554 40.4995 13.2674 41.4814 15.2145C42.4633 17.1617 42.9544 19.4352 42.9544 22.035C42.9544 24.6238 42.4633 26.8864 41.4814 28.8227C40.4995 30.759 39.1204 32.2655 37.344 33.3425C35.5677 34.4193 33.4879 34.9578 31.1048 34.9578ZM31.1213 30.8623C32.6659 30.8623 33.9458 30.4598 34.9608 29.6548C35.9759 28.8499 36.7262 27.7784 37.2115 26.4405C37.7081 25.1024 37.9563 23.6285 37.9563 22.0187C37.9563 20.4195 37.7081 18.9511 37.2115 17.613C36.7262 16.2642 35.9759 15.1818 34.9608 14.3661C33.9458 13.5502 32.6659 13.1423 31.1213 13.1423C29.5656 13.1423 28.2747 13.5502 27.2487 14.3661C26.2335 15.1818 25.4778 16.2642 24.9813 17.613C24.4958 18.9511 24.2531 20.4195 24.2531 22.0187C24.2531 23.6285 24.4958 25.1024 24.9813 26.4405C25.4778 27.7784 26.2335 28.8499 27.2487 29.6548C28.2747 30.4598 29.5656 30.8623 31.1213 30.8623Z"
      fill="#111111"
    />
<path
      fill-rule="evenodd"
      clip-rule="evenodd"
      d="M45.5877 24.8013V9.06311H50.5517V24.8013C50.5517 27.6817 52.8976 30.0167 55.7915 30.0167C58.6853 30.0167 61.0312 27.6817 61.0312 24.8013V9.06311H65.9954V24.8013C65.9954 30.4105 61.427 34.9578 55.7915 34.9578C50.1561 34.9578 45.5877 30.4105 45.5877 24.8013Z"
      fill="#111111"
    />
<path
      fill-rule="evenodd"
      clip-rule="evenodd"
      d="M70.1098 34.3104V9.06311H75.0471V34.3104H70.1098Z"
      fill="#111111"
    />
<path
      d="M75.87 3.23684C75.87 5.02449 74.3963 6.47368 72.5785 6.47368C70.7606 6.47368 69.2869 5.02449 69.2869 3.23684C69.2869 1.44918 70.7606 0 72.5785 0C74.3963 0 75.87 1.44918 75.87 3.23684Z"
      fill="#111111"
    />
<path
      d="M97.7624 15.5082L93.3344 16.2914C93.1493 15.7258 92.8552 15.1873 92.4522 14.6761C92.06 14.1648 91.5262 13.746 90.8509 13.4197C90.1755 13.0933 89.3314 12.9301 88.3183 12.9301C86.9349 12.9301 85.7803 13.2402 84.8544 13.8602C83.9285 14.4694 83.4656 15.258 83.4656 16.2262C83.4656 17.0638 83.776 17.7381 84.3969 18.2494C85.0178 18.7607 86.0199 19.1795 87.4033 19.5059L91.3901 20.4195C93.6993 20.9526 95.4205 21.7739 96.5532 22.8834C97.6861 23.993 98.2526 25.4342 98.2526 27.2073C98.2526 28.7085 97.8168 30.0464 96.9454 31.2213C96.0849 32.3852 94.8812 33.2989 93.3344 33.9625C91.7986 34.626 90.0176 34.9578 87.9916 34.9578C85.1812 34.9578 82.8882 34.3595 81.1127 33.163C79.3372 31.9555 78.2479 30.2422 77.8449 28.0232L82.5669 27.3052C82.861 28.5345 83.4656 29.4644 84.3805 30.0954C85.2955 30.7154 86.4883 31.0255 87.9588 31.0255C89.5601 31.0255 90.84 30.6937 91.7986 30.0301C92.7572 29.3556 93.2364 28.5345 93.2364 27.5663C93.2364 26.7831 92.9423 26.125 92.3541 25.592C91.7768 25.0589 90.889 24.6564 89.6908 24.3846L85.4427 23.4545C83.1007 22.9214 81.3688 22.073 80.2467 20.9091C79.1357 19.7452 78.5802 18.2712 78.5802 16.4872C78.5802 15.0079 78.9941 13.7134 79.822 12.6039C80.6497 11.4943 81.7935 10.6295 83.2531 10.0095C84.7128 9.37856 86.3849 9.06311 88.2692 9.06311C90.9816 9.06311 93.1165 9.65051 94.6743 10.8253C96.2319 11.9893 97.2613 13.5502 97.7624 15.5082Z"
      fill="#111111"
    />
<path
      d="M108.789 34.9578C107.184 34.9578 105.732 34.6647 104.434 34.0784C103.136 33.4812 102.108 32.6181 101.349 31.4889C100.602 30.3598 100.228 28.9754 100.228 27.3359C100.228 25.9245 100.502 24.7627 101.052 23.8507C101.602 22.9387 102.345 22.2167 103.279 21.6847C104.214 21.1528 105.259 20.751 106.414 20.4796C107.568 20.2081 108.745 20.0019 109.944 19.8607C111.462 19.687 112.693 19.5458 113.639 19.4373C114.585 19.3179 115.272 19.1278 115.701 18.8672C116.13 18.6066 116.345 18.1832 116.345 17.597V17.483C116.345 16.0606 115.938 14.9586 115.124 14.1769C114.321 13.3952 113.122 13.0043 111.528 13.0043C109.867 13.0043 108.558 13.368 107.602 14.0954C106.656 14.8121 106.001 15.6101 105.638 16.4895L101.003 15.4472C101.553 13.9272 102.356 12.7003 103.411 11.7666C104.478 10.822 105.704 10.138 107.09 9.71455C108.476 9.28025 109.933 9.06311 111.462 9.06311C112.473 9.06311 113.546 9.18254 114.678 9.4214C115.822 9.6494 116.889 10.0728 117.879 10.6917C118.88 11.3106 119.699 12.1955 120.337 13.3463C120.975 14.4863 121.293 15.9684 121.293 17.7924V34.3104H116.477V30.984H116.279C115.96 31.6137 115.481 32.2326 114.843 32.8406C114.206 33.4486 113.386 33.9535 112.385 34.3552C111.385 34.7569 110.186 34.9578 108.789 34.9578ZM109.862 31.0491C111.225 31.0491 112.391 30.7832 113.359 30.2511C114.338 29.7191 115.08 29.0242 115.586 28.1666C116.103 27.298 116.361 26.3697 116.361 25.3816V22.157C116.185 22.3307 115.844 22.4936 115.338 22.6456C114.843 22.7868 114.277 22.9116 113.639 23.0202C113.001 23.1178 112.38 23.2102 111.775 23.297C111.17 23.373 110.664 23.4382 110.257 23.4924C109.301 23.6119 108.426 23.8128 107.634 24.095C106.854 24.3774 106.227 24.7845 105.754 25.3165C105.292 25.8377 105.061 26.5325 105.061 27.4011C105.061 28.6062 105.512 29.5182 106.414 30.1371C107.316 30.7451 108.465 31.0491 109.862 31.0491Z"
      fill="#111111"
    />
</g>
<defs>
<clipPath id="clip0_645_169">
<rect
        width="121.158"
        height="35"
        fill="white"
        transform="translate(0.164062)"
      />
</clipPath>
</defs>
</svg>
